<?xml version="1.0"?>
<svg xmlns="http://www.w3.org/2000/svg" id="color_line" data-name="color line" viewBox="0 0 74 74" width="512" height="512"><path d="M60.477,36.341S47.737,50.2,46.882,70.748a2.024,2.024,0,0,1-2.848,1.779l-.95-.427a4.649,4.649,0,0,0-3.813,0l-1.855.834a4.649,4.649,0,0,1-3.813,0L31.747,72.1a4.649,4.649,0,0,0-3.813,0l-.956.43a2.024,2.024,0,0,1-2.848-1.772C23.2,50.113,9.6,35.285,9.6,35.285,28.584,23.94,46.218,20.4,60.477,36.341Z" fill="#e7aa6c"/><path d="M35.508,73.842A5.15,5.15,0,0,1,33.4,73.39l-1.854-.834a4.152,4.152,0,0,0-3.4,0l-.956.43a2.507,2.507,0,0,1-2.347-.15A2.544,2.544,0,0,1,23.63,70.78C22.722,50.565,9.364,35.77,9.229,35.623a.5.5,0,0,1,.112-.767C31.783,21.446,48.15,21.811,60.85,36.007a.5.5,0,0,1,0,.672c-.126.137-12.627,13.974-13.464,34.09a2.542,2.542,0,0,1-1.2,2.062,2.511,2.511,0,0,1-2.35.153l-.951-.427a4.154,4.154,0,0,0-3.4,0l-1.855.834A5.146,5.146,0,0,1,35.508,73.842ZM29.84,71.191a5.149,5.149,0,0,1,2.112.453l1.854.834a4.152,4.152,0,0,0,3.4,0l1.855-.834a5.148,5.148,0,0,1,4.223,0l.951.427a1.493,1.493,0,0,0,1.415-.092,1.524,1.524,0,0,0,.729-1.252c.779-18.721,11.483-32.1,13.427-34.381C47.622,23,31.888,22.7,10.368,35.409c2.273,2.682,13.427,16.75,14.262,35.327a1.524,1.524,0,0,0,.731,1.249,1.486,1.486,0,0,0,1.412.09l.956-.43A5.149,5.149,0,0,1,29.84,71.191Z" fill="#323c6b"/><path d="M44.473,60.885A53.3,53.3,0,0,0,43.19,70.43a2.07,2.07,0,0,1-.69,1.46,3.1,3.1,0,0,1,.58.21l.95.43a2.023,2.023,0,0,0,2.85-1.78,53.539,53.539,0,0,1,1.478-10.393A22.62,22.62,0,0,1,44.473,60.885Z" fill="#d09865"/><path d="M56.79,36.03a59,59,0,0,0-10.4,18.3,5.343,5.343,0,0,0,1.225-.148c.354-.089.66-.227,1.022-.3.593-.115,1.193-.176,1.791-.255A57.758,57.758,0,0,1,60.48,36.34c-6.63-7.4-13.98-10.6-21.86-10.77C45.11,26.54,51.21,29.8,56.79,36.03Z" fill="#d09865"/><path d="M22.452,59.846a65.931,65.931,0,0,0,26.041-.011,53.52,53.52,0,0,1,1.8-5.853,66,66,0,0,1-29.719,0A56.171,56.171,0,0,1,22.452,59.846Z" fill="#eeefee"/><path d="M19.9,62.577a.5.5,0,0,1-.488-.4c-.04-.186-.081-.371-.125-.554a.5.5,0,1,1,.971-.238c.047.191.09.386.132.582a.5.5,0,0,1-.384.594A.487.487,0,0,1,19.9,62.577Z" fill="#323c6b"/><path d="M19.028,59.309a.5.5,0,0,1-.479-.356,58.705,58.705,0,0,0-3.45-8.782.5.5,0,0,1,.9-.437,59.767,59.767,0,0,1,3.508,8.932.5.5,0,0,1-.335.623A.512.512,0,0,1,19.028,59.309Z" fill="#323c6b"/><path d="M35.508,73.842A5.15,5.15,0,0,1,33.4,73.39l-1.854-.834a4.152,4.152,0,0,0-3.4,0l-.956.43a2.507,2.507,0,0,1-2.347-.15A2.544,2.544,0,0,1,23.63,70.78C22.722,50.565,9.364,35.77,9.229,35.623a.5.5,0,0,1,.112-.767C31.783,21.446,48.15,21.811,60.85,36.007a.5.5,0,0,1,0,.672c-.126.137-12.627,13.974-13.464,34.09a2.542,2.542,0,0,1-1.2,2.062,2.511,2.511,0,0,1-2.35.153l-.951-.427a4.154,4.154,0,0,0-3.4,0l-1.855.834A5.146,5.146,0,0,1,35.508,73.842ZM29.84,71.191a5.149,5.149,0,0,1,2.112.453l1.854.834a4.152,4.152,0,0,0,3.4,0l1.855-.834a5.148,5.148,0,0,1,4.223,0l.951.427a1.493,1.493,0,0,0,1.415-.092,1.524,1.524,0,0,0,.729-1.252c.779-18.721,11.483-32.1,13.427-34.381C47.622,23,31.888,22.7,10.368,35.409c2.273,2.682,13.427,16.75,14.262,35.327a1.524,1.524,0,0,0,.731,1.249,1.486,1.486,0,0,0,1.412.09l.956-.43A5.149,5.149,0,0,1,29.84,71.191Z" fill="#323c6b"/><path d="M38.423,2.924a.5.5,0,0,1-.051-1c.275-.028.55-.056.827-.065a.5.5,0,1,1,.033,1c-.254.009-.505.035-.757.061Z" fill="#323c6b"/><path d="M49.575,9.875a.5.5,0,0,1-.474-.339A9.427,9.427,0,0,0,46.77,5.794a9.9,9.9,0,0,0-5.111-2.746.5.5,0,1,1,.2-.98,10.891,10.891,0,0,1,5.62,3.018,10.553,10.553,0,0,1,2.573,4.128.5.5,0,0,1-.474.661Z" fill="#323c6b"/><path d="M9.916,35.42a18.216,18.216,0,0,0-.369,9s5.171-5.01,10.886-7C18.05,34.647,14.656,33.768,9.916,35.42Z" fill="#6fc666"/><path d="M9.547,44.921a.494.494,0,0,1-.154-.024.5.5,0,0,1-.338-.388,18.668,18.668,0,0,1,.387-9.249.5.5,0,0,1,.31-.313c4.708-1.641,8.431-.917,11.062,2.15a.5.5,0,0,1-.215.8c-5.541,1.927-10.651,6.835-10.7,6.885A.5.5,0,0,1,9.547,44.921Zm.767-9.109a17.239,17.239,0,0,0-.421,7.612,35.133,35.133,0,0,1,9.664-6.209C17.278,34.959,14.246,34.5,10.314,35.813Z" fill="#323c6b"/><path d="M28.5,32.193a21.762,21.762,0,0,0,1.572,9.2,44.394,44.394,0,0,1,7.359-7.777C37.72,30.23,34.676,29.814,28.5,32.193Z" fill="#6fc666"/><path d="M30.075,41.9a.475.475,0,0,1-.064,0,.5.5,0,0,1-.4-.319A22.244,22.244,0,0,1,28,32.156a.5.5,0,0,1,.319-.43c4.362-1.681,7.175-1.978,8.6-.91a3,3,0,0,1,1.011,2.844.5.5,0,0,1-.184.347,44.275,44.275,0,0,0-7.265,7.678A.5.5,0,0,1,30.075,41.9Zm-1.093-9.351a20.859,20.859,0,0,0,1.249,7.807,44.764,44.764,0,0,1,6.718-6.984,1.93,1.93,0,0,0-.628-1.752C35.573,31.055,33.693,30.771,28.981,32.545Z" fill="#323c6b"/><path d="M40.437,34.125a30.541,30.541,0,0,1,7.374,9.741,15.627,15.627,0,0,0,4-6.658C48.3,28.862,43.413,25.608,40.437,34.125Z" fill="#6fc666"/><path d="M47.812,44.366a.494.494,0,0,1-.109-.012.5.5,0,0,1-.345-.28c-.027-.06-2.758-5.959-7.233-9.559a.5.5,0,0,1-.159-.555c1.215-3.478,2.818-5.272,4.763-5.333,2.5-.074,5.267,2.978,7.546,8.387a.5.5,0,0,1,.02.333,16.054,16.054,0,0,1-4.16,6.9A.5.5,0,0,1,47.812,44.366Zm-6.784-10.4a30.512,30.512,0,0,1,6.937,9.077,16.033,16.033,0,0,0,3.319-5.8c-2.064-4.833-4.511-7.669-6.524-7.612C43.345,29.67,42.058,31.167,41.027,33.962Z" fill="#323c6b"/><path d="M58.553,36.274a17.66,17.66,0,0,1,7.822,6.1c1.437-3.187.875-9.812-2.489-12Z" fill="#6fc666"/><path d="M66.375,42.875a.5.5,0,0,1-.417-.224,17.3,17.3,0,0,0-7.58-5.909.5.5,0,0,1-.2-.8l5.333-5.9a.5.5,0,0,1,.644-.084c3.69,2.4,4.165,9.319,2.671,12.629a.5.5,0,0,1-.416.292Zm-6.97-6.8a18.222,18.222,0,0,1,6.817,5.256c.878-3.051.292-8.234-2.266-10.294Z" fill="#323c6b"/><path d="M14.6,19.318a.83.83,0,0,1,.1-.119c2.535-3.348,6.824-3.527,9.2-1.125a5.547,5.547,0,0,1,1.57,4.567,5.291,5.291,0,0,1,3.33,4.876,5.082,5.082,0,0,1-2.688,4.234,4.93,4.93,0,0,1-.618,3.877c-1.617,2.473-5.256,2.949-8.158,1.07a6.9,6.9,0,0,1-1.118-.9,6.826,6.826,0,0,1-3.568.547c-3.425-.357-5.946-3.021-5.661-5.97A4.832,4.832,0,0,1,8.3,27.588a5.027,5.027,0,0,1-1.665-4.21c.309-2.925,3.33-5.018,6.755-4.662A2.351,2.351,0,0,1,14.6,19.318Z" fill="#fe7058"/><path d="M21.09,38.337a7.539,7.539,0,0,1-4.982-1.955,7.363,7.363,0,0,1-3.515.456c-3.675-.383-6.414-3.306-6.1-6.516a5.284,5.284,0,0,1,1.125-2.711,5.411,5.411,0,0,1-1.482-4.285c.337-3.2,3.616-5.493,7.3-5.107a3.378,3.378,0,0,1,1.078.4A7.058,7.058,0,0,1,19.5,15.967a6.111,6.111,0,0,1,4.75,1.755,6.03,6.03,0,0,1,1.737,4.615,5.725,5.725,0,0,1,3.306,5.2A5.512,5.512,0,0,1,26.669,32a5.336,5.336,0,0,1-.762,3.908A5.635,5.635,0,0,1,21.09,38.337Zm-4.875-3.043a.5.5,0,0,1,.354.146,6.415,6.415,0,0,0,1.036.837c2.659,1.721,6.009,1.308,7.468-.924a4.421,4.421,0,0,0,.55-3.49.5.5,0,0,1,.24-.548A4.574,4.574,0,0,0,28.3,27.5,4.788,4.788,0,0,0,25.263,23.1a.5.5,0,0,1-.293-.5,5.015,5.015,0,0,0-1.422-4.162,5.112,5.112,0,0,0-3.978-1.466A6.12,6.12,0,0,0,15.093,19.5c-.01.014-.066.079-.078.092a.442.442,0,0,1-.351.245.493.493,0,0,1-.418-.167,1.846,1.846,0,0,0-.965-.465c-3.1-.313-5.873,1.573-6.153,4.226a4.509,4.509,0,0,0,1.51,3.792.5.5,0,0,1,.022.706,4.337,4.337,0,0,0-1.176,2.5c-.257,2.658,2.082,5.091,5.215,5.418a6.3,6.3,0,0,0,3.309-.505A.5.5,0,0,1,16.215,35.293Z" fill="#323c6b"/><path d="M25.515,27.826a4.1,4.1,0,0,1-.523,4,3.407,3.407,0,0,1-1.665,1.118,5.608,5.608,0,0,1-5.09,3.044,5.627,5.627,0,0,1-5.256-3.377A5.323,5.323,0,0,1,8.914,28.9c-.928-2.759.214-5.661,2.569-6.446a3.493,3.493,0,0,1,.476-.119,3.717,3.717,0,0,1,2.378-2.9,3.585,3.585,0,0,1,3.187.523,2.861,2.861,0,0,1,.951-.523c1.76-.595,3.734.4,4.852,2.26a3.355,3.355,0,0,1,1.736.809C26.466,23.711,26.609,25.923,25.515,27.826Z" fill="#fe7058"/><path d="M18.237,36.484a6.2,6.2,0,0,1-5.606-3.433,5.913,5.913,0,0,1-4.19-4,6.22,6.22,0,0,1,.249-4.725,4.587,4.587,0,0,1,2.636-2.355l.113-.033.107-.031a4.141,4.141,0,0,1,2.637-2.957,3.992,3.992,0,0,1,3.319.393,3.46,3.46,0,0,1,.817-.392,4.724,4.724,0,0,1,5.315,2.281,3.856,3.856,0,0,1,1.765.89,4.632,4.632,0,0,1,.66,5.75,4.53,4.53,0,0,1-.676,4.259,3.962,3.962,0,0,1-1.7,1.215A6.156,6.156,0,0,1,18.237,36.484ZM15.392,19.758a2.829,2.829,0,0,0-.9.146,3.225,3.225,0,0,0-2.047,2.528.5.5,0,0,1-.418.394,2.142,2.142,0,0,0-.311.076l-.1.029a3.584,3.584,0,0,0-2.036,1.846,5.216,5.216,0,0,0-.2,3.959,4.843,4.843,0,0,0,3.667,3.375.5.5,0,0,1,.389.305,5.278,5.278,0,0,0,9.433.3.5.5,0,0,1,.308-.261,2.933,2.933,0,0,0,1.422-.957,3.6,3.6,0,0,0,.436-3.513.5.5,0,0,1,.039-.415c1-1.73.854-3.663-.345-4.7a2.858,2.858,0,0,0-1.482-.692.5.5,0,0,1-.355-.237c-1.026-1.7-2.777-2.545-4.263-2.043a2.354,2.354,0,0,0-.792.433.5.5,0,0,1-.6.029A3.283,3.283,0,0,0,15.392,19.758Z" fill="#323c6b"/><path d="M22.788,27.465a3.333,3.333,0,0,0-.813-1.411,19.178,19.178,0,0,0-3.1-1.647h-.021a1.835,1.835,0,0,0-.813-.342l.257-.257a2.917,2.917,0,0,1,.449-.321,2.865,2.865,0,0,1,2.716-.214A3.23,3.23,0,0,1,22.788,27.465Z" fill="#fe7058"/><path d="M22.788,27.965l-.042,0a.5.5,0,0,1-.447-.4,2.949,2.949,0,0,0-.705-1.19,20.919,20.919,0,0,0-2.858-1.487.5.5,0,0,1-.176-.078,1.33,1.33,0,0,0-.589-.251.5.5,0,0,1-.282-.85l.255-.255a3.466,3.466,0,0,1,.556-.4,3.361,3.361,0,0,1,3.173-.233,3.711,3.711,0,0,1,1.581,4.828A.5.5,0,0,1,22.788,27.965ZM19.072,23.95a16.926,16.926,0,0,1,3.285,1.781c.068.08.135.162.2.245a2.451,2.451,0,0,0-1.3-2.247,2.347,2.347,0,0,0-2.242.183Z" fill="#323c6b"/><path d="M18.746,23.488a2.917,2.917,0,0,0-.449.321l-.257.257a1.843,1.843,0,0,0-.6-.086,2.176,2.176,0,0,0-2.331,2.01.727.727,0,0,0,.021.214,1.822,1.822,0,0,0,.684,1.219,1.82,1.82,0,0,0,.193.941,1.783,1.783,0,0,0,.77.77,3.22,3.22,0,0,1-2.267-1.155,3.632,3.632,0,0,1-.748-1.24,3.325,3.325,0,0,1,1.561-4.384A3.061,3.061,0,0,1,18.746,23.488Z" fill="#fe7058"/><path d="M16.779,29.633h-.013a3.7,3.7,0,0,1-2.629-1.325,4.119,4.119,0,0,1-.843-1.4,3.826,3.826,0,0,1,1.852-5.021,3.538,3.538,0,0,1,3.99,1.287.5.5,0,0,1-.142.748,2.418,2.418,0,0,0-.372.266l-.229.231a.5.5,0,0,1-.51.12,1.357,1.357,0,0,0-.441-.06,1.7,1.7,0,0,0-1.831,1.51,1.078,1.078,0,0,1,.02.169,1.324,1.324,0,0,0,.506.879.5.5,0,0,1,.179.417,1.318,1.318,0,0,0,.141.685,1.3,1.3,0,0,0,.559.552.5.5,0,0,1-.236.941Zm-.534-6.945a2.121,2.121,0,0,0-.745.134,2.836,2.836,0,0,0-1.269,3.739,3.146,3.146,0,0,0,.646,1.075,3.316,3.316,0,0,0,.506.467,2.293,2.293,0,0,1-.068-.463A2.269,2.269,0,0,1,14.64,26.3a1.274,1.274,0,0,1-.028-.306,2.656,2.656,0,0,1,2.831-2.51,2.674,2.674,0,0,1,.443.034l.058-.058.05-.042A2.626,2.626,0,0,0,16.246,22.688Z" fill="#323c6b"/><path d="M22.362,29.414a2.025,2.025,0,0,1-1.478.615h-.026a9.648,9.648,0,0,1-2.407-.34c-.085-.033-1.308-.366-1.648-.536v-.007c0-.013,0-.013-.026-.013a1.8,1.8,0,0,1-.765-.765,1.855,1.855,0,0,1-.2-.942,2.546,2.546,0,0,0,1.629.549,2.185,2.185,0,0,0,2.328-1.988,1.8,1.8,0,0,0-.68-1.406.775.775,0,0,0-.216-.17,15.442,15.442,0,0,1,3.1,1.642,2.739,2.739,0,0,1,.811,1.413A2.013,2.013,0,0,1,22.362,29.414Z" fill="#fe7058"/><path d="M20.884,30.529a10.091,10.091,0,0,1-2.652-.39l-.167-.043a12.251,12.251,0,0,1-1.486-.5.5.5,0,0,1-.076-.047,2.266,2.266,0,0,1-.938-.962,2.348,2.348,0,0,1-.248-1.2.5.5,0,0,1,.821-.352,2.053,2.053,0,0,0,1.307.432,1.687,1.687,0,0,0,1.829-1.488,1.3,1.3,0,0,0-.493-1.016c-.068-.063-.1-.1-.119-.109a.5.5,0,0,1-.254-.632.5.5,0,0,1,.62-.3A15.151,15.151,0,0,1,22.334,25.7a3.2,3.2,0,0,1,.943,1.663,2.475,2.475,0,0,1-.553,2.393h0A2.507,2.507,0,0,1,20.884,30.529Zm-3.817-1.8c.261.114.993.328,1.278.411.153.045.26.078.285.087a9.371,9.371,0,0,0,2.227.307A1.536,1.536,0,0,0,22,29.07h0a1.519,1.519,0,0,0,.3-1.475,2.284,2.284,0,0,0-.673-1.181,6.765,6.765,0,0,0-1.4-.835,2.313,2.313,0,0,1,.036.409,2.678,2.678,0,0,1-2.829,2.488,3.337,3.337,0,0,1-.833-.1,1.425,1.425,0,0,0,.4.318A.6.6,0,0,1,17.067,28.724Zm5.295.69h0Z" fill="#323c6b"/><path d="M20.861,30.029a3.549,3.549,0,0,1-3.934,2.182,3.65,3.65,0,0,1-2.417-4.234,3.224,3.224,0,0,0,2.293,1.17v.006c.341.171,1.564.5,1.646.535A9.294,9.294,0,0,0,20.861,30.029Z" fill="#fe7058"/><path d="M17.615,32.794a3.356,3.356,0,0,1-.809-.1,4.133,4.133,0,0,1-2.791-4.789.5.5,0,0,1,.873-.258,2.72,2.72,0,0,0,1.93,1,.5.5,0,0,1,.262.083c.257.108.916.3,1.21.387.193.056.33.1.357.111a8.818,8.818,0,0,0,2.214.3.5.5,0,0,1,.454.711A4.215,4.215,0,0,1,17.615,32.794Zm-2.629-3.739a2.913,2.913,0,0,0,2.058,2.669,2.9,2.9,0,0,0,2.97-1.242,7.461,7.461,0,0,1-1.736-.325c-.04-.014-.138-.042-.268-.08-.521-.153-1.05-.311-1.341-.436A3.5,3.5,0,0,1,14.986,29.055Z" fill="#323c6b"/><path d="M32.344,9.24a1.129,1.129,0,0,1,.129-.162c3.448-4.553,9.281-4.8,12.515-1.53a7.544,7.544,0,0,1,2.135,6.21,7.2,7.2,0,0,1,4.528,6.631A6.911,6.911,0,0,1,48,26.147a6.705,6.705,0,0,1-.841,5.272c-2.2,3.364-7.148,4.011-11.094,1.456a9.38,9.38,0,0,1-1.52-1.229,9.283,9.283,0,0,1-4.852.744c-4.658-.485-8.086-4.108-7.7-8.119a6.571,6.571,0,0,1,1.779-3.784,6.837,6.837,0,0,1-2.264-5.725c.421-3.978,4.528-6.825,9.186-6.34A3.2,3.2,0,0,1,32.344,9.24Z" fill="#27ccbc"/><path d="M41.171,34.925a10.07,10.07,0,0,1-6.738-2.688,9.834,9.834,0,0,1-4.8.65c-4.9-.511-8.554-4.4-8.141-8.664a7.022,7.022,0,0,1,1.59-3.713,7.206,7.206,0,0,1-2.075-5.8c.449-4.254,4.822-7.3,9.735-6.785a4.188,4.188,0,0,1,1.522.6,9.453,9.453,0,0,1,6.759-3.667,8,8,0,0,1,8.624,8.591,7.627,7.627,0,0,1,4.5,6.953,7.337,7.337,0,0,1-3.592,5.987,7.1,7.1,0,0,1-.987,5.3A7.484,7.484,0,0,1,41.171,34.925Zm-6.63-3.78a.5.5,0,0,1,.354.146,8.91,8.91,0,0,0,1.439,1.163c3.7,2.4,8.365,1.808,10.4-1.309a6.183,6.183,0,0,0,.772-4.886.5.5,0,0,1,.24-.548,6.4,6.4,0,0,0,3.4-5.336,6.691,6.691,0,0,0-4.232-6.16.5.5,0,0,1-.293-.5,7,7,0,0,0-1.987-5.805A7.122,7.122,0,0,0,39.09,5.859,8.5,8.5,0,0,0,32.872,9.38c-.01.014-.083.1-.094.11a.474.474,0,0,1-.361.257.507.507,0,0,1-.427-.155,2.678,2.678,0,0,0-1.4-.682c-4.31-.447-8.192,2.2-8.584,5.9a6.309,6.309,0,0,0,2.109,5.308.5.5,0,0,1,.022.706,6.084,6.084,0,0,0-1.646,3.5c-.359,3.715,2.894,7.112,7.253,7.566a8.778,8.778,0,0,0,4.593-.7A.5.5,0,0,1,34.541,31.146Z" fill="#323c6b"/><path d="M47.188,20.81a5.573,5.573,0,0,1-.712,5.434,4.633,4.633,0,0,1-2.264,1.52,7.858,7.858,0,0,1-14.07-.453,7.239,7.239,0,0,1-5.531-5.046c-1.262-3.752.291-7.7,3.493-8.766a4.751,4.751,0,0,1,.647-.162,5.054,5.054,0,0,1,3.235-3.946,4.875,4.875,0,0,1,4.334.712,3.891,3.891,0,0,1,1.294-.712c2.394-.809,5.078.55,6.6,3.073a4.563,4.563,0,0,1,2.361,1.1C48.482,15.214,48.676,18.222,47.188,20.81Z" fill="#27ccbc"/><path d="M37.29,32.4a8.236,8.236,0,0,1-7.5-4.646,7.839,7.839,0,0,1-5.653-5.333,8.278,8.278,0,0,1,.329-6.287,6.055,6.055,0,0,1,3.48-3.112l.134-.04c.087-.026.171-.05.256-.072a5.477,5.477,0,0,1,3.494-4,5.272,5.272,0,0,1,4.465.577,4.487,4.487,0,0,1,1.16-.576c2.485-.836,5.36.43,7.063,3.093a5.063,5.063,0,0,1,2.39,1.183c2.009,1.737,2.338,4.866.824,7.668a6,6,0,0,1-.866,5.7,5.187,5.187,0,0,1-2.3,1.619A8.183,8.183,0,0,1,37.29,32.4ZM33.422,9.658a4.031,4.031,0,0,0-1.279.208,4.563,4.563,0,0,0-2.9,3.573.5.5,0,0,1-.418.394,3.259,3.259,0,0,0-.46.113l-.12.035a5.055,5.055,0,0,0-2.881,2.6,7.271,7.271,0,0,0-.276,5.522,6.766,6.766,0,0,0,5.13,4.71.5.5,0,0,1,.389.305,7.359,7.359,0,0,0,13.158.423.5.5,0,0,1,.308-.261,4.158,4.158,0,0,0,2.021-1.359,5.071,5.071,0,0,0,.625-4.951.5.5,0,0,1,.038-.415c1.4-2.43,1.189-5.151-.508-6.618a4.065,4.065,0,0,0-2.107-.983.5.5,0,0,1-.355-.236c-1.441-2.392-3.912-3.566-6.01-2.857a3.383,3.383,0,0,0-1.134.622.5.5,0,0,1-.6.029A4.635,4.635,0,0,0,33.422,9.658Z" fill="#323c6b"/><path d="M43.479,20.319A4.533,4.533,0,0,0,42.374,18.4a26.082,26.082,0,0,0-4.217-2.239h-.029a2.5,2.5,0,0,0-1.105-.465l.349-.349a3.967,3.967,0,0,1,.611-.436,3.9,3.9,0,0,1,3.693-.291C43.6,15.492,44.381,18.022,43.479,20.319Z" fill="#27ccbc"/><path d="M43.479,20.819l-.042,0a.5.5,0,0,1-.448-.4,4.048,4.048,0,0,0-1-1.7,27.936,27.936,0,0,0-3.968-2.077.524.524,0,0,1-.19-.08,1.991,1.991,0,0,0-.881-.375.5.5,0,0,1-.284-.848l.35-.35a4.467,4.467,0,0,1,.716-.517,4.392,4.392,0,0,1,4.152-.311c2.161.982,3.066,3.766,2.058,6.336A.5.5,0,0,1,43.479,20.819Zm-5.147-5.126c.309.123,3.868,1.727,4.424,2.384.2.235.395.479.572.736a3.639,3.639,0,0,0-1.858-3.738,3.418,3.418,0,0,0-3.229.265c-.083.047-.164.1-.244.154A3.311,3.311,0,0,1,38.332,15.692Z" fill="#323c6b"/><path d="M37.983,14.91a3.967,3.967,0,0,0-.611.436l-.349.349a2.506,2.506,0,0,0-.814-.116,2.96,2.96,0,0,0-3.17,2.734.989.989,0,0,0,.029.291A2.477,2.477,0,0,0,34,20.261a2.475,2.475,0,0,0,.262,1.28,2.425,2.425,0,0,0,1.047,1.047,4.379,4.379,0,0,1-3.082-1.57,4.939,4.939,0,0,1-1.018-1.687c-.93-2.472,0-5.147,2.123-5.962A4.163,4.163,0,0,1,37.983,14.91Z" fill="#27ccbc"/><path d="M35.308,23.087h-.013a4.854,4.854,0,0,1-3.445-1.741A5.425,5.425,0,0,1,30.737,19.5c-1.028-2.731.054-5.694,2.414-6.6A4.63,4.63,0,0,1,38.373,14.6a.5.5,0,0,1-.142.748,3.453,3.453,0,0,0-.533.381l-.32.323a.5.5,0,0,1-.513.121,2.009,2.009,0,0,0-.656-.091,2.484,2.484,0,0,0-2.67,2.234,1.024,1.024,0,0,0,.006.14.41.41,0,0,1,.021.1,1.982,1.982,0,0,0,.752,1.319.5.5,0,0,1,.179.418,1.959,1.959,0,0,0,.21,1.022,1.933,1.933,0,0,0,.835.83.5.5,0,0,1-.235.941Zm-.725-9.445a3.063,3.063,0,0,0-1.078.194c-1.844.708-2.667,3.093-1.831,5.317a4.458,4.458,0,0,0,.915,1.521,4.5,4.5,0,0,0,1.158.948,2.99,2.99,0,0,1-.253-1.143,2.928,2.928,0,0,1-.919-1.783,1.559,1.559,0,0,1-.036-.385,3.435,3.435,0,0,1,3.67-3.234,3.358,3.358,0,0,1,.664.06l.146-.146q.108-.093.21-.174A3.8,3.8,0,0,0,34.583,13.643Z" fill="#323c6b"/><path d="M42.9,22.97a2.754,2.754,0,0,1-2.01.836h-.036a13.12,13.12,0,0,1-3.273-.462c-.116-.045-1.779-.5-2.242-.729v-.009c0-.018,0-.018-.036-.018a2.448,2.448,0,0,1-1.041-1.041A2.522,2.522,0,0,1,34,20.266a3.462,3.462,0,0,0,2.215.747,2.972,2.972,0,0,0,3.167-2.7,2.442,2.442,0,0,0-.925-1.912,1.054,1.054,0,0,0-.293-.231A21,21,0,0,1,42.376,18.4a3.725,3.725,0,0,1,1.1,1.921A2.738,2.738,0,0,1,42.9,22.97Z" fill="#27ccbc"/><path d="M40.89,24.306a13.384,13.384,0,0,1-3.527-.513c.012.005-.107-.027-.264-.073a16.623,16.623,0,0,1-1.982-.659.509.509,0,0,1-.085-.054,2.919,2.919,0,0,1-1.215-1.237,3.026,3.026,0,0,1-.319-1.535.5.5,0,0,1,.82-.353,2.977,2.977,0,0,0,1.894.63,2.472,2.472,0,0,0,2.667-2.2,1.944,1.944,0,0,0-.737-1.522,1.2,1.2,0,0,0-.19-.167.5.5,0,0,1,.36-.931c.146.046,3.573,1.491,4.423,2.36a4.235,4.235,0,0,1,1.235,2.171,3.2,3.2,0,0,1-.705,3.095h0A3.234,3.234,0,0,1,40.89,24.306Zm-5.28-2.117c.355.159,1.338.446,1.769.572.206.061.35.1.383.117a12.99,12.99,0,0,0,3.092.429,2.266,2.266,0,0,0,1.683-.681h0A2.24,2.24,0,0,0,43,20.449a3.274,3.274,0,0,0-.965-1.689,11.023,11.023,0,0,0-2.288-1.337,2.967,2.967,0,0,1,.135.887,3.463,3.463,0,0,1-3.667,3.2,4.274,4.274,0,0,1-1.546-.286c.014.032.029.064.045.1a1.942,1.942,0,0,0,.825.821A.571.571,0,0,1,35.61,22.189Zm7.29.781h0Z" fill="#323c6b"/><path d="M40.858,23.806a4.827,4.827,0,0,1-5.35,2.967c-2.3-.552-3.663-3.079-3.287-5.758a4.384,4.384,0,0,0,3.119,1.591v.008c.464.232,2.127.68,2.239.728A12.64,12.64,0,0,0,40.858,23.806Z" fill="#27ccbc"/><path d="M36.445,27.387a4.374,4.374,0,0,1-1.057-.128c-2.506-.6-4.082-3.317-3.661-6.312a.5.5,0,0,1,.873-.258,3.881,3.881,0,0,0,2.755,1.419.5.5,0,0,1,.271.089c.348.152,1.238.412,1.68.541.255.075.437.131.473.147a12.165,12.165,0,0,0,3.081.423.5.5,0,0,1,.453.711A5.552,5.552,0,0,1,36.445,27.387Zm-3.783-5.272a4.229,4.229,0,0,0,2.963,4.172,4.2,4.2,0,0,0,4.407-2.018,10.84,10.84,0,0,1-2.625-.458c-.056-.021-.2-.061-.383-.115a18.435,18.435,0,0,1-1.824-.6A4.662,4.662,0,0,1,32.662,22.115Z" fill="#323c6b"/><path d="M39.379,18.313a2.975,2.975,0,0,1-3.167,2.7A3.459,3.459,0,0,1,34,20.264a2.5,2.5,0,0,1-.928-1.663.886.886,0,0,1-.032-.288,2.965,2.965,0,0,1,3.175-2.735,2.439,2.439,0,0,1,.808.12,2.5,2.5,0,0,1,1.112.464h.024a1.056,1.056,0,0,1,.3.232A2.462,2.462,0,0,1,39.379,18.313Z" fill="#eeefee"/><path d="M36.212,21.516a3.985,3.985,0,0,1-2.537-.869,3.007,3.007,0,0,1-1.1-1.948,1.465,1.465,0,0,1-.039-.386,3.48,3.48,0,0,1,3.674-3.235,2.9,2.9,0,0,1,.971.147,2.729,2.729,0,0,1,1.157.472l.027.011a1.514,1.514,0,0,1,.438.332,2.919,2.919,0,0,1,1.074,2.273A3.463,3.463,0,0,1,36.212,21.516Zm0-5.438a2.487,2.487,0,0,0-2.674,2.235.937.937,0,0,0,.005.129.426.426,0,0,1,.024.115,2,2,0,0,0,.752,1.325,2.973,2.973,0,0,0,1.892.634,2.471,2.471,0,0,0,2.667-2.2,1.961,1.961,0,0,0-.741-1.53,2.042,2.042,0,0,0-.165-.15.5.5,0,0,1-.134-.065,1.988,1.988,0,0,0-.886-.373A2.293,2.293,0,0,0,36.212,16.078Z" fill="#323c6b"/><path d="M19.773,25.99a2.188,2.188,0,0,1-2.329,1.988,2.543,2.543,0,0,1-1.629-.553,1.838,1.838,0,0,1-.682-1.223.652.652,0,0,1-.024-.212,2.18,2.18,0,0,1,2.334-2.011,1.793,1.793,0,0,1,.594.088,1.839,1.839,0,0,1,.817.341h.018a.777.777,0,0,1,.218.171A1.81,1.81,0,0,1,19.773,25.99Z" fill="#eeefee"/><path d="M17.444,28.477a3.024,3.024,0,0,1-1.951-.67,2.345,2.345,0,0,1-.853-1.51,1.217,1.217,0,0,1-.031-.308,2.691,2.691,0,0,1,2.834-2.511,2.255,2.255,0,0,1,.757.116,2.066,2.066,0,0,1,.871.354l.012.005a1.234,1.234,0,0,1,.361.271,2.268,2.268,0,0,1,.829,1.765A2.678,2.678,0,0,1,17.444,28.477Zm0-4A1.7,1.7,0,0,0,15.61,25.99a.869.869,0,0,1,.021.167,1.343,1.343,0,0,0,.507.885,2.053,2.053,0,0,0,1.306.435,1.708,1.708,0,0,0,1.829-1.487,1.311,1.311,0,0,0-.5-1.022c-.049-.046-.083-.079-.1-.1a.476.476,0,0,1-.113-.059,1.323,1.323,0,0,0-.592-.25A1.662,1.662,0,0,0,17.444,24.479Z" fill="#323c6b"/><path d="M56.273,19.318a.83.83,0,0,0-.1-.119c-2.535-3.348-6.824-3.527-9.2-1.125a5.547,5.547,0,0,0-1.57,4.567,5.291,5.291,0,0,0-3.33,4.876,5.082,5.082,0,0,0,2.688,4.234,4.93,4.93,0,0,0,.618,3.877C47,38.1,50.638,38.576,53.54,36.7a6.9,6.9,0,0,0,1.118-.9,6.826,6.826,0,0,0,3.568.547c3.425-.357,5.946-3.021,5.661-5.97a4.832,4.832,0,0,0-1.308-2.783,5.027,5.027,0,0,0,1.665-4.21c-.309-2.925-3.33-5.018-6.755-4.662A2.351,2.351,0,0,0,56.273,19.318Z" fill="#fe7058"/><path d="M49.784,38.337a5.638,5.638,0,0,1-4.82-2.437A5.331,5.331,0,0,1,44.2,32a5.519,5.519,0,0,1-2.628-4.466,5.727,5.727,0,0,1,3.307-5.193,6.032,6.032,0,0,1,1.743-4.62,6.1,6.1,0,0,1,4.745-1.75,7.046,7.046,0,0,1,4.987,2.652,3.221,3.221,0,0,1,1.027-.391c3.739-.4,7.018,1.9,7.356,5.1a5.411,5.411,0,0,1-1.482,4.286,5.281,5.281,0,0,1,1.125,2.7c.311,3.216-2.428,6.14-6.106,6.522a7.324,7.324,0,0,1-3.512-.456,7.545,7.545,0,0,1-4.981,1.955Zm1.161-21.384a5.019,5.019,0,0,0-5.042,5.64.5.5,0,0,1-.293.5,4.789,4.789,0,0,0-3.034,4.4,4.578,4.578,0,0,0,2.435,3.816.5.5,0,0,1,.24.548A4.416,4.416,0,0,0,45.8,35.35c1.461,2.235,4.811,2.651,7.47.928A6.4,6.4,0,0,0,54.3,35.44a.5.5,0,0,1,.561-.1,6.3,6.3,0,0,0,3.306.505c3.136-.327,5.476-2.76,5.218-5.425a4.341,4.341,0,0,0-1.175-2.489.5.5,0,0,1,.022-.706,4.511,4.511,0,0,0,1.51-3.793c-.281-2.652-3.065-4.541-6.206-4.216a1.8,1.8,0,0,0-.912.457.487.487,0,0,1-.433.141.5.5,0,0,1-.346-.229c-.024-.027-.063-.073-.07-.082A6.119,6.119,0,0,0,51.3,16.965Q51.124,16.953,50.945,16.953Z" fill="#323c6b"/><path d="M45.358,27.826a4.1,4.1,0,0,0,.523,4,3.407,3.407,0,0,0,1.665,1.118,5.778,5.778,0,0,0,10.346-.333A5.323,5.323,0,0,0,61.96,28.9c.928-2.759-.214-5.661-2.569-6.446a3.493,3.493,0,0,0-.476-.119,3.717,3.717,0,0,0-2.378-2.9,3.585,3.585,0,0,0-3.187.523,2.861,2.861,0,0,0-.951-.523c-1.76-.595-3.734.4-4.852,2.26a3.355,3.355,0,0,0-1.736.809C44.407,23.711,44.264,25.923,45.358,27.826Z" fill="#fe7058"/><path d="M52.636,36.484a6.157,6.157,0,0,1-5.441-3.134,3.948,3.948,0,0,1-1.7-1.21,4.532,4.532,0,0,1-.681-4.264,4.634,4.634,0,0,1,.668-5.757,3.839,3.839,0,0,1,1.757-.883,4.727,4.727,0,0,1,5.318-2.28,3.436,3.436,0,0,1,.814.391,4,4,0,0,1,3.323-.392,4.143,4.143,0,0,1,2.634,2.956l.108.031.112.033a4.582,4.582,0,0,1,2.635,2.354,6.221,6.221,0,0,1,.249,4.724,5.913,5.913,0,0,1-4.19,4A6.2,6.2,0,0,1,52.636,36.484ZM51.355,19.761a4.146,4.146,0,0,0-3.38,2.187.5.5,0,0,1-.355.236,2.852,2.852,0,0,0-1.475.686c-1.207,1.043-1.349,2.976-.353,4.707a.5.5,0,0,1,.039.415,3.6,3.6,0,0,0,.441,3.518,2.919,2.919,0,0,0,1.417.952.5.5,0,0,1,.308.261,5.279,5.279,0,0,0,9.434-.3.5.5,0,0,1,.389-.305,4.842,4.842,0,0,0,3.667-3.375,5.217,5.217,0,0,0-.2-3.959,3.594,3.594,0,0,0-2.057-1.853,2.945,2.945,0,0,0-.389-.1.5.5,0,0,1-.418-.394,3.226,3.226,0,0,0-2.044-2.528,3.073,3.073,0,0,0-2.75.461.5.5,0,0,1-.6-.029,2.352,2.352,0,0,0-.79-.433A2.759,2.759,0,0,0,51.355,19.761Z" fill="#323c6b"/><path d="M48.085,27.465a3.333,3.333,0,0,1,.813-1.411A19.178,19.178,0,0,1,52,24.407h.021a1.835,1.835,0,0,1,.813-.342l-.257-.257a2.917,2.917,0,0,0-.449-.321,2.865,2.865,0,0,0-2.716-.214A3.23,3.23,0,0,0,48.085,27.465Z" fill="#fe7058"/><path d="M48.085,27.965a.5.5,0,0,1-.465-.317A3.71,3.71,0,0,1,49.2,22.818a3.367,3.367,0,0,1,3.18.241,3.456,3.456,0,0,1,.517.369l.285.284a.5.5,0,0,1-.283.849,1.328,1.328,0,0,0-.588.251.507.507,0,0,1-.2.086,20.722,20.722,0,0,0-2.841,1.484,2.941,2.941,0,0,0-.7,1.185.5.5,0,0,1-.447.4Zm2.453-4.441a2.174,2.174,0,0,0-.917.2,2.452,2.452,0,0,0-1.306,2.249c.066-.083.133-.165.2-.245A16.952,16.952,0,0,1,51.8,23.949l.059-.038A2.6,2.6,0,0,0,50.539,23.524Z" fill="#323c6b"/><path d="M52.127,23.488a2.917,2.917,0,0,1,.449.321l.257.257a1.843,1.843,0,0,1,.6-.086,2.176,2.176,0,0,1,2.331,2.01.727.727,0,0,1-.021.214,1.822,1.822,0,0,1-.684,1.219,1.82,1.82,0,0,1-.193.941,1.783,1.783,0,0,1-.77.77,3.22,3.22,0,0,0,2.267-1.155,3.632,3.632,0,0,0,.748-1.24,3.325,3.325,0,0,0-1.561-4.384A3.061,3.061,0,0,0,52.127,23.488Z" fill="#fe7058"/><path d="M54.094,29.633a.5.5,0,0,1-.236-.941,1.28,1.28,0,0,0,.7-1.237.5.5,0,0,1,.179-.417,1.326,1.326,0,0,0,.506-.88.5.5,0,0,1,.024-.114,1.706,1.706,0,0,0-1.835-1.564,1.357,1.357,0,0,0-.441.06.5.5,0,0,1-.511-.121l-.257-.258a2.513,2.513,0,0,0-.343-.239.5.5,0,0,1-.142-.747,3.538,3.538,0,0,1,3.986-1.289,3.828,3.828,0,0,1,1.854,5.028,4.138,4.138,0,0,1-.852,1.406,3.692,3.692,0,0,1-2.618,1.313Zm1.464-1.992a2.313,2.313,0,0,1-.068.465,3.233,3.233,0,0,0,.5-.458,3.169,3.169,0,0,0,.654-1.082,2.837,2.837,0,0,0-1.271-3.746,2.436,2.436,0,0,0-2.487.591l.019.016.086.085a2.735,2.735,0,0,1,.444-.034,2.656,2.656,0,0,1,2.831,2.51,1.28,1.28,0,0,1-.028.307A2.274,2.274,0,0,1,55.558,27.641Z" fill="#323c6b"/><path d="M48.511,29.414a2.025,2.025,0,0,0,1.478.615h.026a9.648,9.648,0,0,0,2.407-.34c.085-.033,1.308-.366,1.648-.536v-.007c0-.013,0-.013.026-.013a1.8,1.8,0,0,0,.765-.765,1.855,1.855,0,0,0,.2-.942,2.546,2.546,0,0,1-1.629.549A2.185,2.185,0,0,1,51.1,25.987a1.8,1.8,0,0,1,.68-1.406.775.775,0,0,1,.216-.17,15.442,15.442,0,0,0-3.1,1.642,2.739,2.739,0,0,0-.811,1.413A2.013,2.013,0,0,0,48.511,29.414Z" fill="#fe7058"/><path d="M50.015,30.529a2.527,2.527,0,0,1-1.867-.77h0a2.5,2.5,0,0,1-.545-2.423,3.193,3.193,0,0,1,.949-1.645,15.166,15.166,0,0,1,3.3-1.757.5.5,0,0,1,.359.931c-.008.006-.044.042-.071.069a1.341,1.341,0,0,0-.534,1.053,1.687,1.687,0,0,0,1.828,1.488,2.055,2.055,0,0,0,1.308-.433.5.5,0,0,1,.82.352,2.356,2.356,0,0,1-.248,1.2,2.27,2.27,0,0,1-.943.964.487.487,0,0,1-.072.044,11.853,11.853,0,0,1-1.486.5l-.217.064A10.18,10.18,0,0,1,50.015,30.529Zm-1.142-1.459a1.518,1.518,0,0,0,1.116.459,9.7,9.7,0,0,0,2.214-.29c.064-.026.171-.059.324-.1.289-.084,1.036-.3,1.288-.416.013-.009.027-.017.041-.024h0a1.445,1.445,0,0,0,.408-.324,3.348,3.348,0,0,1-.834.1A2.678,2.678,0,0,1,50.6,25.987a2.316,2.316,0,0,1,.036-.408,6.825,6.825,0,0,0-1.383.823,2.275,2.275,0,0,0-.679,1.164,1.538,1.538,0,0,0,.3,1.5Z" fill="#323c6b"/><path d="M50.013,30.029a3.549,3.549,0,0,0,3.934,2.182,3.65,3.65,0,0,0,2.417-4.234,3.224,3.224,0,0,1-2.293,1.17v.006c-.341.171-1.564.5-1.646.535A9.294,9.294,0,0,1,50.013,30.029Z" fill="#fe7058"/><path d="M53.257,32.8a4.216,4.216,0,0,1-3.7-2.555.5.5,0,0,1,.454-.711,8.742,8.742,0,0,0,2.238-.311s.141-.045.331-.1c.3-.087.969-.283,1.22-.391a.494.494,0,0,1,.254-.08,2.721,2.721,0,0,0,1.93-1,.5.5,0,0,1,.873.258,4.133,4.133,0,0,1-2.8,4.79A3.354,3.354,0,0,1,53.257,32.8Zm-2.4-2.313a2.7,2.7,0,0,0,5.027-1.427,3.506,3.506,0,0,1-1.682.586c-.292.125-.821.284-1.344.437-.129.038-.226.065-.263.078A7.467,7.467,0,0,1,50.86,30.482Z" fill="#323c6b"/><path d="M51.1,25.99a2.188,2.188,0,0,0,2.329,1.988,2.543,2.543,0,0,0,1.629-.553A1.838,1.838,0,0,0,55.74,26.2a.652.652,0,0,0,.024-.212,2.18,2.18,0,0,0-2.334-2.011,1.793,1.793,0,0,0-.594.088,1.839,1.839,0,0,0-.817.341H52a.777.777,0,0,0-.218.171A1.81,1.81,0,0,0,51.1,25.99Z" fill="#eeefee"/><path d="M53.429,28.477A2.677,2.677,0,0,1,50.6,25.99a2.305,2.305,0,0,1,.869-1.8,1.037,1.037,0,0,1,.32-.234l.013-.005a2.3,2.3,0,0,1,.965-.377,1.9,1.9,0,0,1,.662-.093,2.659,2.659,0,0,1,2.834,2.511,1.221,1.221,0,0,1-.031.308,2.34,2.34,0,0,1-.852,1.509A3.024,3.024,0,0,1,53.429,28.477Zm-1.235-3.6c-.016.014-.038.036-.055.054a1.354,1.354,0,0,0-.538,1.06,1.708,1.708,0,0,0,1.828,1.487,2.052,2.052,0,0,0,1.307-.436,1.338,1.338,0,0,0,.506-.884.5.5,0,0,1,.028-.127,1.711,1.711,0,0,0-1.841-1.552A1.3,1.3,0,0,0,53,24.54a1.543,1.543,0,0,0-.687.273A.508.508,0,0,1,52.193,24.876Z" fill="#323c6b"/><path d="M48.632,59.3c.424-1.608.9-3.157,1.419-4.625-.511.056-.934-.295-1.426-.165a9.062,9.062,0,0,1-1.133.33c-.452.059-.994.4-1.449.442-.491,1.461-.936,3-1.328,4.588A29.383,29.383,0,0,0,48.632,59.3Z" fill="#e1e6e9"/><path d="M35.451,61.632a67.09,67.09,0,0,1-13.1-1.3.5.5,0,0,1-.387-.369,55.369,55.369,0,0,0-1.859-5.811.5.5,0,0,1,.58-.662,65.821,65.821,0,0,0,29.5,0,.5.5,0,0,1,.486.157.5.5,0,0,1,.095.5,53.186,53.186,0,0,0-1.787,5.8.5.5,0,0,1-.388.374A66.912,66.912,0,0,1,35.451,61.632ZM22.859,59.417a65.75,65.75,0,0,0,25.224-.01c.366-1.47.848-3.06,1.437-4.74a66.749,66.749,0,0,1-28.159,0C22,56.44,22.493,58,22.859,59.417Z" fill="#323c6b"/><path d="M27.119,51.764a.694.694,0,0,1-.09-.006q-.423-.059-.844-.123a.65.65,0,0,1,.193-1.285q.415.062.828.12a.65.65,0,0,1-.088,1.294Z" fill="#fff"/><path d="M35.439,52.3c-1.8,0-3.592-.073-5.374-.218a.65.65,0,1,1,.105-1.3,64.82,64.82,0,0,0,9.752.059.65.65,0,1,1,.09,1.3C38.495,52.243,36.967,52.3,35.439,52.3Z" fill="#fff"/></svg>
